<?xml version="1.0" encoding="UTF-8" standalone="no"?>
<!DOCTYPE svg PUBLIC "-//W3C//DTD SVG 1.1//EN"
 "http://www.w3.org/Graphics/SVG/1.1/DTD/svg11.dtd">
<!-- Generated by graphviz version 2.36.0 (20140111.2315)
 -->
<!-- Title: oneDegreeRelationshipsDiagramImplied Pages: 1 -->
<svg width="313pt" height="179pt"
 viewBox="0.00 0.00 313.00 179.00" xmlns="http://www.w3.org/2000/svg" xmlns:xlink="http://www.w3.org/1999/xlink">
<g id="graph0" class="graph" transform="scale(1 1) rotate(0) translate(4 175)">
<title>oneDegreeRelationshipsDiagramImplied</title>
<polygon fill="#ffffff" stroke="none" points="-4,4 -4,-175 309,-175 309,4 -4,4"/>
<text text-anchor="middle" x="71.5" y="-7.2" font-family="Helvetica,sans-Serif" font-size="11.00">Generated by SchemaSpy</text>
<!-- user -->
<g id="node1" class="node"><title>user</title>
<g id="a_node1"><a xlink:href="../../tables/user.html" xlink:title="user" target="_top">
<polygon fill="#ffffff" stroke="none" points="221.5,-42.5 221.5,-167.5 296.5,-167.5 296.5,-42.5 221.5,-42.5"/>
<polygon fill="#f5f5f5" stroke="none" points="222,-144 222,-167 297,-167 297,-144 222,-144"/>
<polygon fill="none" stroke="black" points="222,-144 222,-167 297,-167 297,-144 222,-144"/>
<text text-anchor="start" x="227" y="-153.7" font-family="Helvetica,sans-Serif" font-weight="bold" font-size="11.00">user</text>
<text text-anchor="start" x="262" y="-152.7" font-family="Helvetica,sans-Serif" font-size="11.00">[table]</text>
<polygon fill="none" stroke="black" points="222,-122 222,-144 297,-144 297,-122 222,-122"/>
<image xlink:href="../../images/primaryKeys.png" width="8.25px" height="9px" preserveAspectRatio="xMinYMin meet" x="228.375" y="-137.5"/>
<text text-anchor="start" x="243" y="-130.2" font-family="Helvetica,sans-Serif" font-size="11.00">userId</text>
<polygon fill="none" stroke="black" points="222,-100 222,-122 297,-122 297,-100 222,-100"/>
<image xlink:href="../../images/foreignKeys.png" width="8.25px" height="9px" preserveAspectRatio="xMinYMin meet" x="228.375" y="-115.5"/>
<text text-anchor="start" x="243" y="-108.2" font-family="Helvetica,sans-Serif" font-size="11.00">groupId</text>
<polygon fill="#ffffff" stroke="none" points="222,-78 222,-100 297,-100 297,-78 222,-78"/>
<polygon fill="none" stroke="black" points="222,-78 222,-100 297,-100 297,-78 222,-78"/>
<text text-anchor="start" x="243" y="-86.2" font-family="Helvetica,sans-Serif" font-size="11.00">email</text>
<polygon fill="none" stroke="black" points="222,-60 222,-78 297,-78 297,-60 222,-60"/>
<text text-anchor="start" x="225" y="-66.2" font-family="Helvetica,sans-Serif" font-size="11.00">...</text>
<polygon fill="#ffffff" stroke="none" points="222,-42 222,-60 245,-60 245,-42 222,-42"/>
<polygon fill="none" stroke="black" points="222,-42 222,-60 245,-60 245,-42 222,-42"/>
<text text-anchor="start" x="225" y="-48.2" font-family="Helvetica,sans-Serif" font-size="11.00">&lt; 1</text>
<polygon fill="#ffffff" stroke="none" points="245,-42 245,-60 284,-60 284,-42 245,-42"/>
<polygon fill="none" stroke="black" points="245,-42 245,-60 284,-60 284,-42 245,-42"/>
<text text-anchor="start" x="248" y="-48.2" font-family="Helvetica,sans-Serif" font-size="11.00">0 rows</text>
<polygon fill="#ffffff" stroke="none" points="284,-42 284,-60 297,-60 297,-42 284,-42"/>
<polygon fill="none" stroke="black" points="284,-42 284,-60 297,-60 297,-42 284,-42"/>
<text text-anchor="start" x="287" y="-48.2" font-family="Helvetica,sans-Serif" font-size="11.00"> &#160;</text>
</a>
</g>
</g>
<!-- group -->
<g id="node2" class="node"><title>group</title>
<g id="a_node2"><a xlink:href="../../tables/group.html" xlink:title="group" target="_top">
<polygon fill="#ffffff" stroke="none" points="8.5,-36.5 8.5,-147.5 171.5,-147.5 171.5,-36.5 8.5,-36.5"/>
<polygon fill="#f5f5f5" stroke="none" points="11,-122 11,-145 170,-145 170,-122 11,-122"/>
<polygon fill="none" stroke="black" points="11,-122 11,-145 170,-145 170,-122 11,-122"/>
<text text-anchor="start" x="16" y="-131.7" font-family="Helvetica,sans-Serif" font-weight="bold" font-size="11.00">group</text>
<text text-anchor="start" x="135" y="-130.7" font-family="Helvetica,sans-Serif" font-size="11.00">[table]</text>
<polygon fill="none" stroke="black" points="11,-100 11,-122 109,-122 109,-100 11,-100"/>
<image xlink:href="../../images/primaryKeys.png" width="8.25px" height="9px" preserveAspectRatio="xMinYMin meet" x="17.375" y="-115.5"/>
<text text-anchor="start" x="32" y="-108.2" font-family="Helvetica,sans-Serif" font-size="11.00">groupId</text>
<polygon fill="none" stroke="black" points="109,-100 109,-122 170,-122 170,-100 109,-100"/>
<text text-anchor="start" x="112" y="-108.2" font-family="Helvetica,sans-Serif" font-size="11.00">int[10]</text>
<polygon fill="#ffffff" stroke="none" points="11,-78 11,-100 109,-100 109,-78 11,-78"/>
<polygon fill="none" stroke="black" points="11,-78 11,-100 109,-100 109,-78 11,-78"/>
<text text-anchor="start" x="32" y="-86.2" font-family="Helvetica,sans-Serif" font-size="11.00">name</text>
<polygon fill="none" stroke="black" points="109,-78 109,-100 170,-100 170,-78 109,-78"/>
<text text-anchor="start" x="112" y="-86.2" font-family="Helvetica,sans-Serif" font-size="11.00">varchar[16]</text>
<polygon fill="none" stroke="black" points="11,-56 11,-78 109,-78 109,-56 11,-56"/>
<text text-anchor="start" x="32" y="-64.2" font-family="Helvetica,sans-Serif" font-size="11.00">description</text>
<polygon fill="none" stroke="black" points="109,-56 109,-78 170,-78 170,-56 109,-56"/>
<text text-anchor="start" x="112" y="-64.2" font-family="Helvetica,sans-Serif" font-size="11.00">varchar[80]</text>
<polygon fill="#ffffff" stroke="none" points="11,-38 11,-56 52,-56 52,-38 11,-38"/>
<polygon fill="none" stroke="black" points="11,-38 11,-56 52,-56 52,-38 11,-38"/>
<text text-anchor="start" x="14" y="-44.2" font-family="Helvetica,sans-Serif" font-size="11.00">&lt; 0</text>
<polygon fill="#ffffff" stroke="none" points="52,-38 52,-56 109,-56 109,-38 52,-38"/>
<polygon fill="none" stroke="black" points="52,-38 52,-56 109,-56 109,-38 52,-38"/>
<text text-anchor="start" x="73" y="-44.2" font-family="Helvetica,sans-Serif" font-size="11.00">0 rows</text>
<polygon fill="#ffffff" stroke="none" points="109,-38 109,-56 170,-56 170,-38 109,-38"/>
<polygon fill="none" stroke="black" points="109,-38 109,-56 170,-56 170,-38 109,-38"/>
<text text-anchor="start" x="151" y="-44.2" font-family="Helvetica,sans-Serif" font-size="11.00">1 &gt;</text>
<polygon fill="none" stroke="black" stroke-width="2" points="9.5,-37.5 9.5,-146.5 170.5,-146.5 170.5,-37.5 9.5,-37.5"/>
</a>
</g>
</g>
<!-- user&#45;&gt;group -->
<g id="edge1" class="edge"><title>user:groupId:w&#45;&gt;group:groupId.type:e</title>
<path fill="none" stroke="black" stroke-dasharray="5,2" d="M206.565,-111C194.805,-111 187.493,-111 171,-111"/>
<polygon fill="black" stroke="black" points="213,-111 221,-114.6 217,-111 221,-111 221,-111 221,-111 217,-111 221,-107.4 213,-111 213,-111"/>
<ellipse fill="none" stroke="black" cx="209.8" cy="-111" rx="3.2" ry="3.2"/>
</g>
</g>
</svg>
