<?xml version="1.0" encoding="UTF-8" standalone="no"?>
<!DOCTYPE svg PUBLIC "-//W3C//DTD SVG 1.1//EN"
 "http://www.w3.org/Graphics/SVG/1.1/DTD/svg11.dtd">
<!-- Generated by graphviz version 2.36.0 (20140111.2315)
 -->
<!-- Title: oneDegreeRelationshipsDiagram Pages: 1 -->
<svg width="188pt" height="159pt"
 viewBox="0.00 0.00 188.00 159.00" xmlns="http://www.w3.org/2000/svg" xmlns:xlink="http://www.w3.org/1999/xlink">
<g id="graph0" class="graph" transform="scale(1 1) rotate(0) translate(4 155)">
<title>oneDegreeRelationshipsDiagram</title>
<polygon fill="#ffffff" stroke="none" points="-4,4 -4,-155 184,-155 184,4 -4,4"/>
<text text-anchor="middle" x="71.5" y="-7.2" font-family="Helvetica,sans-Serif" font-size="11.00">Generated by SchemaSpy</text>
<!-- group -->
<g id="node1" class="node"><title>group</title>
<g id="a_node1"><a xlink:href="../../tables/group.html" xlink:title="group" target="_top">
<polygon fill="#ffffff" stroke="none" points="8.5,-36.5 8.5,-147.5 171.5,-147.5 171.5,-36.5 8.5,-36.5"/>
<polygon fill="#f5f5f5" stroke="none" points="11,-122 11,-145 170,-145 170,-122 11,-122"/>
<polygon fill="none" stroke="black" points="11,-122 11,-145 170,-145 170,-122 11,-122"/>
<text text-anchor="start" x="16" y="-131.7" font-family="Helvetica,sans-Serif" font-weight="bold" font-size="11.00">group</text>
<text text-anchor="start" x="135" y="-130.7" font-family="Helvetica,sans-Serif" font-size="11.00">[table]</text>
<polygon fill="none" stroke="black" points="11,-100 11,-122 109,-122 109,-100 11,-100"/>
<image xlink:href="../../images/primaryKeys.png" width="8.25px" height="9px" preserveAspectRatio="xMinYMin meet" x="17.375" y="-115.5"/>
<text text-anchor="start" x="32" y="-108.2" font-family="Helvetica,sans-Serif" font-size="11.00">groupId</text>
<polygon fill="none" stroke="black" points="109,-100 109,-122 170,-122 170,-100 109,-100"/>
<text text-anchor="start" x="112" y="-108.2" font-family="Helvetica,sans-Serif" font-size="11.00">int[10]</text>
<polygon fill="#ffffff" stroke="none" points="11,-78 11,-100 109,-100 109,-78 11,-78"/>
<polygon fill="none" stroke="black" points="11,-78 11,-100 109,-100 109,-78 11,-78"/>
<text text-anchor="start" x="32" y="-86.2" font-family="Helvetica,sans-Serif" font-size="11.00">name</text>
<polygon fill="none" stroke="black" points="109,-78 109,-100 170,-100 170,-78 109,-78"/>
<text text-anchor="start" x="112" y="-86.2" font-family="Helvetica,sans-Serif" font-size="11.00">varchar[16]</text>
<polygon fill="none" stroke="black" points="11,-56 11,-78 109,-78 109,-56 11,-56"/>
<text text-anchor="start" x="32" y="-64.2" font-family="Helvetica,sans-Serif" font-size="11.00">description</text>
<polygon fill="none" stroke="black" points="109,-56 109,-78 170,-78 170,-56 109,-56"/>
<text text-anchor="start" x="112" y="-64.2" font-family="Helvetica,sans-Serif" font-size="11.00">varchar[80]</text>
<polygon fill="#ffffff" stroke="none" points="11,-38 11,-56 52,-56 52,-38 11,-38"/>
<polygon fill="none" stroke="black" points="11,-38 11,-56 52,-56 52,-38 11,-38"/>
<text text-anchor="start" x="14" y="-44.2" font-family="Helvetica,sans-Serif" font-size="11.00">&lt; 0</text>
<polygon fill="#ffffff" stroke="none" points="52,-38 52,-56 109,-56 109,-38 52,-38"/>
<polygon fill="none" stroke="black" points="52,-38 52,-56 109,-56 109,-38 52,-38"/>
<text text-anchor="start" x="73" y="-44.2" font-family="Helvetica,sans-Serif" font-size="11.00">0 rows</text>
<polygon fill="#ffffff" stroke="none" points="109,-38 109,-56 170,-56 170,-38 109,-38"/>
<polygon fill="none" stroke="black" points="109,-38 109,-56 170,-56 170,-38 109,-38"/>
<text text-anchor="start" x="151" y="-44.2" font-family="Helvetica,sans-Serif" font-size="11.00">0 &gt;</text>
<polygon fill="none" stroke="black" stroke-width="2" points="9.5,-37.5 9.5,-146.5 170.5,-146.5 170.5,-37.5 9.5,-37.5"/>
</a>
</g>
</g>
</g>
</svg>
