<?xml version="1.0" encoding="UTF-8" standalone="no"?>
<!DOCTYPE svg PUBLIC "-//W3C//DTD SVG 1.1//EN"
 "http://www.w3.org/Graphics/SVG/1.1/DTD/svg11.dtd">
<!-- Generated by graphviz version 2.36.0 (20140111.2315)
 -->
<!-- Title: oneDegreeRelationshipsDiagram Pages: 1 -->
<svg width="164pt" height="181pt"
 viewBox="0.00 0.00 164.00 181.00" xmlns="http://www.w3.org/2000/svg" xmlns:xlink="http://www.w3.org/1999/xlink">
<g id="graph0" class="graph" transform="scale(1 1) rotate(0) translate(4 177)">
<title>oneDegreeRelationshipsDiagram</title>
<polygon fill="#ffffff" stroke="none" points="-4,4 -4,-177 160,-177 160,4 -4,4"/>
<text text-anchor="middle" x="71.5" y="-7.2" font-family="Helvetica,sans-Serif" font-size="11.00">Generated by SchemaSpy</text>
<!-- user -->
<g id="node1" class="node"><title>user</title>
<g id="a_node1"><a xlink:href="../../tables/user.html" xlink:title="user" target="_top">
<polygon fill="#ffffff" stroke="none" points="8.5,-36.5 8.5,-169.5 147.5,-169.5 147.5,-36.5 8.5,-36.5"/>
<polygon fill="#f5f5f5" stroke="none" points="11,-144 11,-167 146,-167 146,-144 11,-144"/>
<polygon fill="none" stroke="black" points="11,-144 11,-167 146,-167 146,-144 11,-144"/>
<text text-anchor="start" x="16" y="-153.7" font-family="Helvetica,sans-Serif" font-weight="bold" font-size="11.00">user</text>
<text text-anchor="start" x="111" y="-152.7" font-family="Helvetica,sans-Serif" font-size="11.00">[table]</text>
<polygon fill="none" stroke="black" points="11,-122 11,-144 85,-144 85,-122 11,-122"/>
<image xlink:href="../../images/primaryKeys.png" width="8.25px" height="9px" preserveAspectRatio="xMinYMin meet" x="17.375" y="-137.5"/>
<text text-anchor="start" x="32" y="-130.2" font-family="Helvetica,sans-Serif" font-size="11.00">userId</text>
<polygon fill="none" stroke="black" points="85,-122 85,-144 146,-144 146,-122 85,-122"/>
<text text-anchor="start" x="88" y="-130.2" font-family="Helvetica,sans-Serif" font-size="11.00">int[10]</text>
<polygon fill="none" stroke="black" points="11,-100 11,-122 85,-122 85,-100 11,-100"/>
<image xlink:href="../../images/foreignKeys.png" width="8.25px" height="9px" preserveAspectRatio="xMinYMin meet" x="17.375" y="-115.5"/>
<text text-anchor="start" x="32" y="-108.2" font-family="Helvetica,sans-Serif" font-size="11.00">groupId</text>
<polygon fill="none" stroke="black" points="85,-100 85,-122 146,-122 146,-100 85,-100"/>
<text text-anchor="start" x="88" y="-108.2" font-family="Helvetica,sans-Serif" font-size="11.00">int[10]</text>
<polygon fill="none" stroke="black" points="11,-78 11,-100 85,-100 85,-78 11,-78"/>
<text text-anchor="start" x="32" y="-86.2" font-family="Helvetica,sans-Serif" font-size="11.00">name</text>
<polygon fill="none" stroke="black" points="85,-78 85,-100 146,-100 146,-78 85,-78"/>
<text text-anchor="start" x="88" y="-86.2" font-family="Helvetica,sans-Serif" font-size="11.00">varchar[16]</text>
<polygon fill="#ffffff" stroke="none" points="11,-56 11,-78 85,-78 85,-56 11,-56"/>
<polygon fill="none" stroke="black" points="11,-56 11,-78 85,-78 85,-56 11,-56"/>
<text text-anchor="start" x="32" y="-64.2" font-family="Helvetica,sans-Serif" font-size="11.00">email</text>
<polygon fill="none" stroke="black" points="85,-56 85,-78 146,-78 146,-56 85,-56"/>
<text text-anchor="start" x="88" y="-64.2" font-family="Helvetica,sans-Serif" font-size="11.00">varchar[40]</text>
<polygon fill="#ffffff" stroke="none" points="11,-38 11,-56 40,-56 40,-38 11,-38"/>
<polygon fill="none" stroke="black" points="11,-38 11,-56 40,-56 40,-38 11,-38"/>
<text text-anchor="start" x="14" y="-44.2" font-family="Helvetica,sans-Serif" font-size="11.00">&lt; 0</text>
<polygon fill="#ffffff" stroke="none" points="40,-38 40,-56 85,-56 85,-38 40,-38"/>
<polygon fill="none" stroke="black" points="40,-38 40,-56 85,-56 85,-38 40,-38"/>
<text text-anchor="start" x="49" y="-44.2" font-family="Helvetica,sans-Serif" font-size="11.00">0 rows</text>
<polygon fill="#ffffff" stroke="none" points="85,-38 85,-56 146,-56 146,-38 85,-38"/>
<polygon fill="none" stroke="black" points="85,-38 85,-56 146,-56 146,-38 85,-38"/>
<text text-anchor="start" x="127" y="-44.2" font-family="Helvetica,sans-Serif" font-size="11.00">0 &gt;</text>
<polygon fill="none" stroke="black" stroke-width="2" points="9.5,-37.5 9.5,-168.5 146.5,-168.5 146.5,-37.5 9.5,-37.5"/>
</a>
</g>
</g>
</g>
</svg>
