<?xml version="1.0" encoding="UTF-8" standalone="no"?>
<!DOCTYPE svg PUBLIC "-//W3C//DTD SVG 1.1//EN"
 "http://www.w3.org/Graphics/SVG/1.1/DTD/svg11.dtd">
<!-- Generated by graphviz version 2.36.0 (20140111.2315)
 -->
<!-- Title: oneDegreeRelationshipsDiagramImplied Pages: 1 -->
<svg width="311pt" height="181pt"
 viewBox="0.00 0.00 311.00 181.00" xmlns="http://www.w3.org/2000/svg" xmlns:xlink="http://www.w3.org/1999/xlink">
<g id="graph0" class="graph" transform="scale(1 1) rotate(0) translate(4 177)">
<title>oneDegreeRelationshipsDiagramImplied</title>
<polygon fill="#ffffff" stroke="none" points="-4,4 -4,-177 307,-177 307,4 -4,4"/>
<text text-anchor="middle" x="71.5" y="-7.2" font-family="Helvetica,sans-Serif" font-size="11.00">Generated by SchemaSpy</text>
<!-- user -->
<g id="node1" class="node"><title>user</title>
<g id="a_node1"><a xlink:href="../../tables/user.html" xlink:title="user" target="_top">
<polygon fill="#ffffff" stroke="none" points="155.5,-36.5 155.5,-169.5 294.5,-169.5 294.5,-36.5 155.5,-36.5"/>
<polygon fill="#f5f5f5" stroke="none" points="158,-144 158,-167 293,-167 293,-144 158,-144"/>
<polygon fill="none" stroke="black" points="158,-144 158,-167 293,-167 293,-144 158,-144"/>
<text text-anchor="start" x="163" y="-153.7" font-family="Helvetica,sans-Serif" font-weight="bold" font-size="11.00">user</text>
<text text-anchor="start" x="258" y="-152.7" font-family="Helvetica,sans-Serif" font-size="11.00">[table]</text>
<polygon fill="none" stroke="black" points="158,-122 158,-144 232,-144 232,-122 158,-122"/>
<image xlink:href="../../images/primaryKeys.png" width="8.25px" height="9px" preserveAspectRatio="xMinYMin meet" x="164.375" y="-137.5"/>
<text text-anchor="start" x="179" y="-130.2" font-family="Helvetica,sans-Serif" font-size="11.00">userId</text>
<polygon fill="none" stroke="black" points="232,-122 232,-144 293,-144 293,-122 232,-122"/>
<text text-anchor="start" x="235" y="-130.2" font-family="Helvetica,sans-Serif" font-size="11.00">int[10]</text>
<polygon fill="none" stroke="black" points="158,-100 158,-122 232,-122 232,-100 158,-100"/>
<image xlink:href="../../images/foreignKeys.png" width="8.25px" height="9px" preserveAspectRatio="xMinYMin meet" x="164.375" y="-115.5"/>
<text text-anchor="start" x="179" y="-108.2" font-family="Helvetica,sans-Serif" font-size="11.00">groupId</text>
<polygon fill="none" stroke="black" points="232,-100 232,-122 293,-122 293,-100 232,-100"/>
<text text-anchor="start" x="235" y="-108.2" font-family="Helvetica,sans-Serif" font-size="11.00">int[10]</text>
<polygon fill="none" stroke="black" points="158,-78 158,-100 232,-100 232,-78 158,-78"/>
<text text-anchor="start" x="179" y="-86.2" font-family="Helvetica,sans-Serif" font-size="11.00">name</text>
<polygon fill="none" stroke="black" points="232,-78 232,-100 293,-100 293,-78 232,-78"/>
<text text-anchor="start" x="235" y="-86.2" font-family="Helvetica,sans-Serif" font-size="11.00">varchar[16]</text>
<polygon fill="#ffffff" stroke="none" points="158,-56 158,-78 232,-78 232,-56 158,-56"/>
<polygon fill="none" stroke="black" points="158,-56 158,-78 232,-78 232,-56 158,-56"/>
<text text-anchor="start" x="179" y="-64.2" font-family="Helvetica,sans-Serif" font-size="11.00">email</text>
<polygon fill="none" stroke="black" points="232,-56 232,-78 293,-78 293,-56 232,-56"/>
<text text-anchor="start" x="235" y="-64.2" font-family="Helvetica,sans-Serif" font-size="11.00">varchar[40]</text>
<polygon fill="#ffffff" stroke="none" points="158,-38 158,-56 187,-56 187,-38 158,-38"/>
<polygon fill="none" stroke="black" points="158,-38 158,-56 187,-56 187,-38 158,-38"/>
<text text-anchor="start" x="161" y="-44.2" font-family="Helvetica,sans-Serif" font-size="11.00">&lt; 1</text>
<polygon fill="#ffffff" stroke="none" points="187,-38 187,-56 232,-56 232,-38 187,-38"/>
<polygon fill="none" stroke="black" points="187,-38 187,-56 232,-56 232,-38 187,-38"/>
<text text-anchor="start" x="196" y="-44.2" font-family="Helvetica,sans-Serif" font-size="11.00">0 rows</text>
<polygon fill="#ffffff" stroke="none" points="232,-38 232,-56 293,-56 293,-38 232,-38"/>
<polygon fill="none" stroke="black" points="232,-38 232,-56 293,-56 293,-38 232,-38"/>
<text text-anchor="start" x="274" y="-44.2" font-family="Helvetica,sans-Serif" font-size="11.00">0 &gt;</text>
<polygon fill="none" stroke="black" stroke-width="2" points="156.5,-37.5 156.5,-168.5 293.5,-168.5 293.5,-37.5 156.5,-37.5"/>
</a>
</g>
</g>
<!-- group -->
<g id="node2" class="node"><title>group</title>
<g id="a_node2"><a xlink:href="../../tables/group.html" xlink:title="group" target="_top">
<polygon fill="#ffffff" stroke="none" points="8,-42.5 8,-145.5 106,-145.5 106,-42.5 8,-42.5"/>
<polygon fill="#f5f5f5" stroke="none" points="8,-122 8,-145 106,-145 106,-122 8,-122"/>
<polygon fill="none" stroke="black" points="8,-122 8,-145 106,-145 106,-122 8,-122"/>
<text text-anchor="start" x="13" y="-131.7" font-family="Helvetica,sans-Serif" font-weight="bold" font-size="11.00">group</text>
<text text-anchor="start" x="71" y="-130.7" font-family="Helvetica,sans-Serif" font-size="11.00">[table]</text>
<polygon fill="none" stroke="black" points="8,-100 8,-122 106,-122 106,-100 8,-100"/>
<image xlink:href="../../images/primaryKeys.png" width="8.25px" height="9px" preserveAspectRatio="xMinYMin meet" x="14.375" y="-115.5"/>
<text text-anchor="start" x="29" y="-108.2" font-family="Helvetica,sans-Serif" font-size="11.00">groupId</text>
<polygon fill="#ffffff" stroke="none" points="8,-78 8,-100 106,-100 106,-78 8,-78"/>
<polygon fill="none" stroke="black" points="8,-78 8,-100 106,-100 106,-78 8,-78"/>
<text text-anchor="start" x="29" y="-86.2" font-family="Helvetica,sans-Serif" font-size="11.00">name</text>
<polygon fill="none" stroke="black" points="8,-60 8,-78 106,-78 106,-60 8,-60"/>
<text text-anchor="start" x="11" y="-66.2" font-family="Helvetica,sans-Serif" font-size="11.00">...</text>
<polygon fill="#ffffff" stroke="none" points="8,-42 8,-60 33,-60 33,-42 8,-42"/>
<polygon fill="none" stroke="black" points="8,-42 8,-60 33,-60 33,-42 8,-42"/>
<text text-anchor="start" x="11" y="-48.2" font-family="Helvetica,sans-Serif" font-size="11.00"> &#160;</text>
<polygon fill="#ffffff" stroke="none" points="33,-42 33,-60 78,-60 78,-42 33,-42"/>
<polygon fill="none" stroke="black" points="33,-42 33,-60 78,-60 78,-42 33,-42"/>
<text text-anchor="start" x="42" y="-48.2" font-family="Helvetica,sans-Serif" font-size="11.00">0 rows</text>
<polygon fill="#ffffff" stroke="none" points="78,-42 78,-60 106,-60 106,-42 78,-42"/>
<polygon fill="none" stroke="black" points="78,-42 78,-60 106,-60 106,-42 78,-42"/>
<text text-anchor="start" x="87" y="-48.2" font-family="Helvetica,sans-Serif" font-size="11.00">1 &gt;</text>
</a>
</g>
</g>
<!-- user&#45;&gt;group -->
<g id="edge1" class="edge"><title>user:groupId:w&#45;&gt;group:groupId:e</title>
<path fill="none" stroke="black" stroke-dasharray="5,2" d="M142.565,-111C130.805,-111 123.493,-111 107,-111"/>
<polygon fill="black" stroke="black" points="149,-111 157,-114.6 153,-111 157,-111 157,-111 157,-111 153,-111 157,-107.4 149,-111 149,-111"/>
<ellipse fill="none" stroke="black" cx="145.8" cy="-111" rx="3.2" ry="3.2"/>
</g>
</g>
</svg>
