<?xml version="1.0" encoding="UTF-8" standalone="no"?>
<!DOCTYPE svg PUBLIC "-//W3C//DTD SVG 1.1//EN"
 "http://www.w3.org/Graphics/SVG/1.1/DTD/svg11.dtd">
<!-- Generated by graphviz version 2.36.0 (20140111.2315)
 -->
<!-- Title: group Pages: 1 -->
<svg width="188pt" height="126pt"
 viewBox="0.00 0.00 188.00 126.00" xmlns="http://www.w3.org/2000/svg" xmlns:xlink="http://www.w3.org/1999/xlink">
<g id="graph0" class="graph" transform="scale(1 1) rotate(0) translate(4 122)">
<title>group</title>
<polygon fill="#ffffff" stroke="none" points="-4,4 -4,-122 184,-122 184,4 -4,4"/>
<!-- group -->
<g id="node1" class="node"><title>group</title>
<g id="a_node1"><a xlink:href="../../tables/group.html" xlink:title="group" target="_top">
<polygon fill="#ffffff" stroke="none" points="8.5,-3.5 8.5,-114.5 171.5,-114.5 171.5,-3.5 8.5,-3.5"/>
<polygon fill="#f5f5f5" stroke="none" points="11,-89 11,-112 170,-112 170,-89 11,-89"/>
<polygon fill="none" stroke="black" points="11,-89 11,-112 170,-112 170,-89 11,-89"/>
<text text-anchor="start" x="16" y="-98.7" font-family="Helvetica,sans-Serif" font-weight="bold" font-size="11.00">group</text>
<text text-anchor="start" x="135" y="-97.7" font-family="Helvetica,sans-Serif" font-size="11.00">[table]</text>
<polygon fill="none" stroke="black" points="11,-67 11,-89 109,-89 109,-67 11,-67"/>
<image xlink:href="../../images/primaryKeys.png" width="8.25px" height="9px" preserveAspectRatio="xMinYMin meet" x="17.375" y="-82.5"/>
<text text-anchor="start" x="32" y="-75.2" font-family="Helvetica,sans-Serif" font-size="11.00">groupId</text>
<polygon fill="none" stroke="black" points="109,-67 109,-89 170,-89 170,-67 109,-67"/>
<text text-anchor="start" x="112" y="-75.2" font-family="Helvetica,sans-Serif" font-size="11.00">int[10]</text>
<polygon fill="#ffffff" stroke="none" points="11,-45 11,-67 109,-67 109,-45 11,-45"/>
<polygon fill="none" stroke="black" points="11,-45 11,-67 109,-67 109,-45 11,-45"/>
<text text-anchor="start" x="32" y="-53.2" font-family="Helvetica,sans-Serif" font-size="11.00">name</text>
<polygon fill="none" stroke="black" points="109,-45 109,-67 170,-67 170,-45 109,-45"/>
<text text-anchor="start" x="112" y="-53.2" font-family="Helvetica,sans-Serif" font-size="11.00">varchar[16]</text>
<polygon fill="none" stroke="black" points="11,-23 11,-45 109,-45 109,-23 11,-23"/>
<text text-anchor="start" x="32" y="-31.2" font-family="Helvetica,sans-Serif" font-size="11.00">description</text>
<polygon fill="none" stroke="black" points="109,-23 109,-45 170,-45 170,-23 109,-23"/>
<text text-anchor="start" x="112" y="-31.2" font-family="Helvetica,sans-Serif" font-size="11.00">varchar[80]</text>
<polygon fill="#ffffff" stroke="none" points="11,-5 11,-23 52,-23 52,-5 11,-5"/>
<polygon fill="none" stroke="black" points="11,-5 11,-23 52,-23 52,-5 11,-5"/>
<text text-anchor="start" x="14" y="-11.2" font-family="Helvetica,sans-Serif" font-size="11.00">&lt; 0</text>
<polygon fill="#ffffff" stroke="none" points="52,-5 52,-23 109,-23 109,-5 52,-5"/>
<polygon fill="none" stroke="black" points="52,-5 52,-23 109,-23 109,-5 52,-5"/>
<text text-anchor="start" x="73" y="-11.2" font-family="Helvetica,sans-Serif" font-size="11.00">0 rows</text>
<polygon fill="#ffffff" stroke="none" points="109,-5 109,-23 170,-23 170,-5 109,-5"/>
<polygon fill="none" stroke="black" points="109,-5 109,-23 170,-23 170,-5 109,-5"/>
<text text-anchor="start" x="151" y="-11.2" font-family="Helvetica,sans-Serif" font-size="11.00">0 &gt;</text>
<polygon fill="none" stroke="black" stroke-width="2" points="9.5,-4.5 9.5,-113.5 170.5,-113.5 170.5,-4.5 9.5,-4.5"/>
</a>
</g>
</g>
</g>
</svg>
