<?xml version="1.0" encoding="UTF-8" standalone="no"?>
<!DOCTYPE svg PUBLIC "-//W3C//DTD SVG 1.1//EN"
 "http://www.w3.org/Graphics/SVG/1.1/DTD/svg11.dtd">
<!-- Generated by graphviz version 2.36.0 (20140111.2315)
 -->
<!-- Title: user Pages: 1 -->
<svg width="164pt" height="148pt"
 viewBox="0.00 0.00 164.00 148.00" xmlns="http://www.w3.org/2000/svg" xmlns:xlink="http://www.w3.org/1999/xlink">
<g id="graph0" class="graph" transform="scale(1 1) rotate(0) translate(4 144)">
<title>user</title>
<polygon fill="#ffffff" stroke="none" points="-4,4 -4,-144 160,-144 160,4 -4,4"/>
<!-- user -->
<g id="node1" class="node"><title>user</title>
<g id="a_node1"><a xlink:href="../../tables/user.html" xlink:title="user" target="_top">
<polygon fill="#ffffff" stroke="none" points="8.5,-3.5 8.5,-136.5 147.5,-136.5 147.5,-3.5 8.5,-3.5"/>
<polygon fill="#f5f5f5" stroke="none" points="11,-111 11,-134 146,-134 146,-111 11,-111"/>
<polygon fill="none" stroke="black" points="11,-111 11,-134 146,-134 146,-111 11,-111"/>
<text text-anchor="start" x="16" y="-120.7" font-family="Helvetica,sans-Serif" font-weight="bold" font-size="11.00">user</text>
<text text-anchor="start" x="111" y="-119.7" font-family="Helvetica,sans-Serif" font-size="11.00">[table]</text>
<polygon fill="none" stroke="black" points="11,-89 11,-111 85,-111 85,-89 11,-89"/>
<image xlink:href="../../images/primaryKeys.png" width="8.25px" height="9px" preserveAspectRatio="xMinYMin meet" x="17.375" y="-104.5"/>
<text text-anchor="start" x="32" y="-97.2" font-family="Helvetica,sans-Serif" font-size="11.00">userId</text>
<polygon fill="none" stroke="black" points="85,-89 85,-111 146,-111 146,-89 85,-89"/>
<text text-anchor="start" x="88" y="-97.2" font-family="Helvetica,sans-Serif" font-size="11.00">int[10]</text>
<polygon fill="none" stroke="black" points="11,-67 11,-89 85,-89 85,-67 11,-67"/>
<image xlink:href="../../images/foreignKeys.png" width="8.25px" height="9px" preserveAspectRatio="xMinYMin meet" x="17.375" y="-82.5"/>
<text text-anchor="start" x="32" y="-75.2" font-family="Helvetica,sans-Serif" font-size="11.00">groupId</text>
<polygon fill="none" stroke="black" points="85,-67 85,-89 146,-89 146,-67 85,-67"/>
<text text-anchor="start" x="88" y="-75.2" font-family="Helvetica,sans-Serif" font-size="11.00">int[10]</text>
<polygon fill="none" stroke="black" points="11,-45 11,-67 85,-67 85,-45 11,-45"/>
<text text-anchor="start" x="32" y="-53.2" font-family="Helvetica,sans-Serif" font-size="11.00">name</text>
<polygon fill="none" stroke="black" points="85,-45 85,-67 146,-67 146,-45 85,-45"/>
<text text-anchor="start" x="88" y="-53.2" font-family="Helvetica,sans-Serif" font-size="11.00">varchar[16]</text>
<polygon fill="#ffffff" stroke="none" points="11,-23 11,-45 85,-45 85,-23 11,-23"/>
<polygon fill="none" stroke="black" points="11,-23 11,-45 85,-45 85,-23 11,-23"/>
<text text-anchor="start" x="32" y="-31.2" font-family="Helvetica,sans-Serif" font-size="11.00">email</text>
<polygon fill="none" stroke="black" points="85,-23 85,-45 146,-45 146,-23 85,-23"/>
<text text-anchor="start" x="88" y="-31.2" font-family="Helvetica,sans-Serif" font-size="11.00">varchar[40]</text>
<polygon fill="#ffffff" stroke="none" points="11,-5 11,-23 40,-23 40,-5 11,-5"/>
<polygon fill="none" stroke="black" points="11,-5 11,-23 40,-23 40,-5 11,-5"/>
<text text-anchor="start" x="14" y="-11.2" font-family="Helvetica,sans-Serif" font-size="11.00">&lt; 0</text>
<polygon fill="#ffffff" stroke="none" points="40,-5 40,-23 85,-23 85,-5 40,-5"/>
<polygon fill="none" stroke="black" points="40,-5 40,-23 85,-23 85,-5 40,-5"/>
<text text-anchor="start" x="49" y="-11.2" font-family="Helvetica,sans-Serif" font-size="11.00">0 rows</text>
<polygon fill="#ffffff" stroke="none" points="85,-5 85,-23 146,-23 146,-5 85,-5"/>
<polygon fill="none" stroke="black" points="85,-5 85,-23 146,-23 146,-5 85,-5"/>
<text text-anchor="start" x="127" y="-11.2" font-family="Helvetica,sans-Serif" font-size="11.00">0 &gt;</text>
<polygon fill="none" stroke="black" stroke-width="2" points="9.5,-4.5 9.5,-135.5 146.5,-135.5 146.5,-4.5 9.5,-4.5"/>
</a>
</g>
</g>
</g>
</svg>
