<?xml version="1.0" encoding="UTF-8" standalone="no"?>
<!DOCTYPE svg PUBLIC "-//W3C//DTD SVG 1.1//EN"
 "http://www.w3.org/Graphics/SVG/1.1/DTD/svg11.dtd">
<!-- Generated by graphviz version 2.36.0 (20140111.2315)
 -->
<!-- Title: largeImpliedRelationshipsDiagram Pages: 1 -->
<svg width="245pt" height="177pt"
 viewBox="0.00 0.00 245.00 177.00" xmlns="http://www.w3.org/2000/svg" xmlns:xlink="http://www.w3.org/1999/xlink">
<g id="graph0" class="graph" transform="scale(1 1) rotate(0) translate(4 173)">
<title>largeImpliedRelationshipsDiagram</title>
<polygon fill="#ffffff" stroke="none" points="-4,4 -4,-173 241,-173 241,4 -4,4"/>
<text text-anchor="middle" x="71.5" y="-7.2" font-family="Helvetica,sans-Serif" font-size="11.00">Generated by SchemaSpy</text>
<!-- group -->
<g id="node1" class="node"><title>group</title>
<g id="a_node1"><a xlink:href="../../tables/group.html" xlink:title="group" target="_top">
<polygon fill="#ffffff" stroke="none" points="8,-36.5 8,-143.5 106,-143.5 106,-36.5 8,-36.5"/>
<polygon fill="#f5f5f5" stroke="none" points="8,-120 8,-143 106,-143 106,-120 8,-120"/>
<polygon fill="none" stroke="black" points="8,-120 8,-143 106,-143 106,-120 8,-120"/>
<text text-anchor="start" x="13" y="-129.7" font-family="Helvetica,sans-Serif" font-weight="bold" font-size="11.00">group</text>
<text text-anchor="start" x="71" y="-128.7" font-family="Helvetica,sans-Serif" font-size="11.00">[table]</text>
<polygon fill="none" stroke="black" points="8,-98 8,-120 106,-120 106,-98 8,-98"/>
<image xlink:href="../../images/primaryKeys.png" width="8.25px" height="9px" preserveAspectRatio="xMinYMin meet" x="14.375" y="-113.5"/>
<text text-anchor="start" x="29" y="-106.2" font-family="Helvetica,sans-Serif" font-size="11.00">groupId</text>
<polygon fill="#ffffff" stroke="none" points="8,-76 8,-98 106,-98 106,-76 8,-76"/>
<polygon fill="none" stroke="black" points="8,-76 8,-98 106,-98 106,-76 8,-76"/>
<text text-anchor="start" x="29" y="-84.2" font-family="Helvetica,sans-Serif" font-size="11.00">name</text>
<polygon fill="none" stroke="black" points="8,-54 8,-76 106,-76 106,-54 8,-54"/>
<text text-anchor="start" x="29" y="-62.2" font-family="Helvetica,sans-Serif" font-size="11.00">description</text>
<polygon fill="#ffffff" stroke="none" points="8,-36 8,-54 38,-54 38,-36 8,-36"/>
<polygon fill="none" stroke="black" points="8,-36 8,-54 38,-54 38,-36 8,-36"/>
<text text-anchor="start" x="11" y="-42.2" font-family="Helvetica,sans-Serif" font-size="11.00"> &#160;</text>
<polygon fill="#ffffff" stroke="none" points="38,-36 38,-54 85,-54 85,-36 38,-36"/>
<polygon fill="none" stroke="black" points="38,-36 38,-54 85,-54 85,-36 38,-36"/>
<text text-anchor="start" x="49" y="-42.2" font-family="Helvetica,sans-Serif" font-size="11.00">0 rows</text>
<polygon fill="#ffffff" stroke="none" points="85,-36 85,-54 106,-54 106,-36 85,-36"/>
<polygon fill="none" stroke="black" points="85,-36 85,-54 106,-54 106,-36 85,-36"/>
<text text-anchor="start" x="96" y="-42.2" font-family="Helvetica,sans-Serif" font-size="11.00"> &#160;</text>
</a>
</g>
</g>
<!-- user -->
<g id="node2" class="node"><title>user</title>
<g id="a_node2"><a xlink:href="../../tables/user.html" xlink:title="user" target="_top">
<polygon fill="#ffffff" stroke="none" points="155,-36.5 155,-165.5 229,-165.5 229,-36.5 155,-36.5"/>
<polygon fill="#f5f5f5" stroke="none" points="155,-142 155,-165 229,-165 229,-142 155,-142"/>
<polygon fill="none" stroke="black" points="155,-142 155,-165 229,-165 229,-142 155,-142"/>
<text text-anchor="start" x="160" y="-151.7" font-family="Helvetica,sans-Serif" font-weight="bold" font-size="11.00">user</text>
<text text-anchor="start" x="194" y="-150.7" font-family="Helvetica,sans-Serif" font-size="11.00">[table]</text>
<polygon fill="none" stroke="black" points="155,-120 155,-142 229,-142 229,-120 155,-120"/>
<image xlink:href="../../images/primaryKeys.png" width="8.25px" height="9px" preserveAspectRatio="xMinYMin meet" x="161.375" y="-135.5"/>
<text text-anchor="start" x="176" y="-128.2" font-family="Helvetica,sans-Serif" font-size="11.00">userId</text>
<polygon fill="none" stroke="black" points="155,-98 155,-120 229,-120 229,-98 155,-98"/>
<image xlink:href="../../images/foreignKeys.png" width="8.25px" height="9px" preserveAspectRatio="xMinYMin meet" x="161.375" y="-113.5"/>
<text text-anchor="start" x="176" y="-106.2" font-family="Helvetica,sans-Serif" font-size="11.00">groupId</text>
<polygon fill="none" stroke="black" points="155,-76 155,-98 229,-98 229,-76 155,-76"/>
<text text-anchor="start" x="176" y="-84.2" font-family="Helvetica,sans-Serif" font-size="11.00">name</text>
<polygon fill="#ffffff" stroke="none" points="155,-54 155,-76 229,-76 229,-54 155,-54"/>
<polygon fill="none" stroke="black" points="155,-54 155,-76 229,-76 229,-54 155,-54"/>
<text text-anchor="start" x="176" y="-62.2" font-family="Helvetica,sans-Serif" font-size="11.00">email</text>
<polygon fill="#ffffff" stroke="none" points="155,-36 155,-54 173,-54 173,-36 155,-36"/>
<polygon fill="none" stroke="black" points="155,-36 155,-54 173,-54 173,-36 155,-36"/>
<text text-anchor="start" x="158" y="-42.2" font-family="Helvetica,sans-Serif" font-size="11.00"> &#160;</text>
<polygon fill="#ffffff" stroke="none" points="173,-36 173,-54 214,-54 214,-36 173,-36"/>
<polygon fill="none" stroke="black" points="173,-36 173,-54 214,-54 214,-36 173,-36"/>
<text text-anchor="start" x="178" y="-42.2" font-family="Helvetica,sans-Serif" font-size="11.00">0 rows</text>
<polygon fill="#ffffff" stroke="none" points="214,-36 214,-54 229,-54 229,-36 214,-36"/>
<polygon fill="none" stroke="black" points="214,-36 214,-54 229,-54 229,-36 214,-36"/>
<text text-anchor="start" x="219" y="-42.2" font-family="Helvetica,sans-Serif" font-size="11.00"> &#160;</text>
</a>
</g>
</g>
<!-- user&#45;&gt;group -->
<g id="edge1" class="edge"><title>user:groupId:w&#45;&gt;group:groupId:e</title>
<path fill="none" stroke="black" stroke-dasharray="5,2" d="M139.396,-109C128.934,-109 122.014,-109 107,-109"/>
<polygon fill="black" stroke="black" points="146,-109 154,-112.6 150,-109 154,-109 154,-109 154,-109 150,-109 154,-105.4 146,-109 146,-109"/>
<ellipse fill="none" stroke="black" cx="142.8" cy="-109" rx="3.2" ry="3.2"/>
</g>
</g>
</svg>
