<?xml version="1.0" encoding="UTF-8" standalone="no"?>
<!DOCTYPE svg PUBLIC "-//W3C//DTD SVG 1.1//EN"
 "http://www.w3.org/Graphics/SVG/1.1/DTD/svg11.dtd">
<!-- Generated by graphviz version 2.36.0 (20140111.2315)
 -->
<!-- Title: compactImpliedRelationshipsDiagram Pages: 1 -->
<svg width="245pt" height="173pt"
 viewBox="0.00 0.00 245.00 173.00" xmlns="http://www.w3.org/2000/svg" xmlns:xlink="http://www.w3.org/1999/xlink">
<g id="graph0" class="graph" transform="scale(1 1) rotate(0) translate(4 169)">
<title>compactImpliedRelationshipsDiagram</title>
<polygon fill="#ffffff" stroke="none" points="-4,4 -4,-169 241,-169 241,4 -4,4"/>
<text text-anchor="middle" x="71.5" y="-7.2" font-family="Helvetica,sans-Serif" font-size="11.00">Generated by SchemaSpy</text>
<!-- group -->
<g id="node1" class="node"><title>group</title>
<g id="a_node1"><a xlink:href="../../tables/group.html" xlink:title="group" target="_top">
<polygon fill="#ffffff" stroke="none" points="8,-36.5 8,-139.5 106,-139.5 106,-36.5 8,-36.5"/>
<polygon fill="#f5f5f5" stroke="none" points="8,-116 8,-139 106,-139 106,-116 8,-116"/>
<polygon fill="none" stroke="black" points="8,-116 8,-139 106,-139 106,-116 8,-116"/>
<text text-anchor="start" x="13" y="-125.7" font-family="Helvetica,sans-Serif" font-weight="bold" font-size="11.00">group</text>
<text text-anchor="start" x="71" y="-124.7" font-family="Helvetica,sans-Serif" font-size="11.00">[table]</text>
<polygon fill="none" stroke="black" points="8,-94 8,-116 106,-116 106,-94 8,-94"/>
<image xlink:href="../../images/primaryKeys.png" width="8.25px" height="9px" preserveAspectRatio="xMinYMin meet" x="14.375" y="-109.5"/>
<text text-anchor="start" x="29" y="-102.2" font-family="Helvetica,sans-Serif" font-size="11.00">groupId</text>
<polygon fill="#ffffff" stroke="none" points="8,-72 8,-94 106,-94 106,-72 8,-72"/>
<polygon fill="none" stroke="black" points="8,-72 8,-94 106,-94 106,-72 8,-72"/>
<text text-anchor="start" x="29" y="-80.2" font-family="Helvetica,sans-Serif" font-size="11.00">name</text>
<polygon fill="none" stroke="black" points="8,-54 8,-72 106,-72 106,-54 8,-54"/>
<text text-anchor="start" x="11" y="-60.2" font-family="Helvetica,sans-Serif" font-size="11.00">...</text>
<polygon fill="#ffffff" stroke="none" points="8,-36 8,-54 38,-54 38,-36 8,-36"/>
<polygon fill="none" stroke="black" points="8,-36 8,-54 38,-54 38,-36 8,-36"/>
<text text-anchor="start" x="11" y="-42.2" font-family="Helvetica,sans-Serif" font-size="11.00"> &#160;</text>
<polygon fill="#ffffff" stroke="none" points="38,-36 38,-54 85,-54 85,-36 38,-36"/>
<polygon fill="none" stroke="black" points="38,-36 38,-54 85,-54 85,-36 38,-36"/>
<text text-anchor="start" x="49" y="-42.2" font-family="Helvetica,sans-Serif" font-size="11.00">0 rows</text>
<polygon fill="#ffffff" stroke="none" points="85,-36 85,-54 106,-54 106,-36 85,-36"/>
<polygon fill="none" stroke="black" points="85,-36 85,-54 106,-54 106,-36 85,-36"/>
<text text-anchor="start" x="96" y="-42.2" font-family="Helvetica,sans-Serif" font-size="11.00"> &#160;</text>
</a>
</g>
</g>
<!-- user -->
<g id="node2" class="node"><title>user</title>
<g id="a_node2"><a xlink:href="../../tables/user.html" xlink:title="user" target="_top">
<polygon fill="#ffffff" stroke="none" points="155,-36.5 155,-161.5 229,-161.5 229,-36.5 155,-36.5"/>
<polygon fill="#f5f5f5" stroke="none" points="155,-138 155,-161 229,-161 229,-138 155,-138"/>
<polygon fill="none" stroke="black" points="155,-138 155,-161 229,-161 229,-138 155,-138"/>
<text text-anchor="start" x="160" y="-147.7" font-family="Helvetica,sans-Serif" font-weight="bold" font-size="11.00">user</text>
<text text-anchor="start" x="194" y="-146.7" font-family="Helvetica,sans-Serif" font-size="11.00">[table]</text>
<polygon fill="none" stroke="black" points="155,-116 155,-138 229,-138 229,-116 155,-116"/>
<image xlink:href="../../images/primaryKeys.png" width="8.25px" height="9px" preserveAspectRatio="xMinYMin meet" x="161.375" y="-131.5"/>
<text text-anchor="start" x="176" y="-124.2" font-family="Helvetica,sans-Serif" font-size="11.00">userId</text>
<polygon fill="none" stroke="black" points="155,-94 155,-116 229,-116 229,-94 155,-94"/>
<image xlink:href="../../images/foreignKeys.png" width="8.25px" height="9px" preserveAspectRatio="xMinYMin meet" x="161.375" y="-109.5"/>
<text text-anchor="start" x="176" y="-102.2" font-family="Helvetica,sans-Serif" font-size="11.00">groupId</text>
<polygon fill="#ffffff" stroke="none" points="155,-72 155,-94 229,-94 229,-72 155,-72"/>
<polygon fill="none" stroke="black" points="155,-72 155,-94 229,-94 229,-72 155,-72"/>
<text text-anchor="start" x="176" y="-80.2" font-family="Helvetica,sans-Serif" font-size="11.00">email</text>
<polygon fill="none" stroke="black" points="155,-54 155,-72 229,-72 229,-54 155,-54"/>
<text text-anchor="start" x="158" y="-60.2" font-family="Helvetica,sans-Serif" font-size="11.00">...</text>
<polygon fill="#ffffff" stroke="none" points="155,-36 155,-54 173,-54 173,-36 155,-36"/>
<polygon fill="none" stroke="black" points="155,-36 155,-54 173,-54 173,-36 155,-36"/>
<text text-anchor="start" x="158" y="-42.2" font-family="Helvetica,sans-Serif" font-size="11.00"> &#160;</text>
<polygon fill="#ffffff" stroke="none" points="173,-36 173,-54 214,-54 214,-36 173,-36"/>
<polygon fill="none" stroke="black" points="173,-36 173,-54 214,-54 214,-36 173,-36"/>
<text text-anchor="start" x="178" y="-42.2" font-family="Helvetica,sans-Serif" font-size="11.00">0 rows</text>
<polygon fill="#ffffff" stroke="none" points="214,-36 214,-54 229,-54 229,-36 214,-36"/>
<polygon fill="none" stroke="black" points="214,-36 214,-54 229,-54 229,-36 214,-36"/>
<text text-anchor="start" x="219" y="-42.2" font-family="Helvetica,sans-Serif" font-size="11.00"> &#160;</text>
</a>
</g>
</g>
<!-- user&#45;&gt;group -->
<g id="edge1" class="edge"><title>user:groupId:w&#45;&gt;group:groupId:e</title>
<path fill="none" stroke="black" stroke-dasharray="5,2" d="M139.396,-105C128.934,-105 122.014,-105 107,-105"/>
<polygon fill="black" stroke="black" points="146,-105 154,-108.6 150,-105 154,-105 154,-105 154,-105 150,-105 154,-101.4 146,-105 146,-105"/>
<ellipse fill="none" stroke="black" cx="142.8" cy="-105" rx="3.2" ry="3.2"/>
</g>
</g>
</svg>
